<?xml version="1.0" standalone="no"?>
<!DOCTYPE svg PUBLIC "-//W3C//DTD SVG 20010904//EN"
 "http://www.w3.org/TR/2001/REC-SVG-20010904/DTD/svg10.dtd">
<svg version="1.0" xmlns="http://www.w3.org/2000/svg"
 width="177.000000pt" height="177.000000pt" viewBox="0 0 177.000000 177.000000"
 preserveAspectRatio="xMidYMid meet">
<metadata>
Created by potrace 1.14, written by Peter Selinger 2001-2017
</metadata>
<g transform="translate(0.000000,177.000000) scale(0.100000,-0.100000)"
fill="#000000" stroke="none">
<path d="M443 1713 c-15 -21 -30 -40 -34 -43 -3 -3 -36 -52 -74 -109 -88 -134
-173 -304 -207 -411 -35 -108 -38 -124 -45 -240 -17 -291 149 -507 492 -640
55 -22 58 -22 51 5 -16 65 -42 225 -61 373 -3 23 -7 59 -10 80 -18 134 -30
574 -17 599 10 17 11 17 10 -2 -1 -24 9 -86 22 -135 5 -19 11 -48 14 -65 3
-16 10 -45 15 -63 5 -18 10 -35 10 -37 6 -59 145 -517 172 -565 6 -10 8 -1 9
27 1 179 106 337 278 420 l79 38 -14 55 c-42 165 -173 352 -374 536 -54 49
-270 214 -280 214 -5 0 -21 -17 -36 -37z"/>
<path d="M1460 888 c-120 -13 -140 -17 -231 -48 -226 -76 -339 -218 -339 -427
0 -73 24 -208 39 -218 5 -2 37 24 72 59 35 34 100 92 144 127 78 63 223 159
240 159 5 0 -21 -30 -56 -67 -36 -38 -85 -95 -110 -128 -54 -70 -161 -247
-154 -253 12 -13 143 -29 202 -26 117 7 193 41 273 123 74 75 130 189 154 316
4 17 9 41 11 55 5 25 18 197 18 235 -1 11 -1 39 -2 63 l-1 43 -97 -3 c-54 -1
-127 -6 -163 -10z"/>
<path d="M1353 33 c9 -2 23 -2 30 0 6 3 -1 5 -18 5 -16 0 -22 -2 -12 -5z"/>
</g>
</svg>
